<?xml version="1.0" encoding="utf-8"?>
<!-- Generator: Adobe Illustrator 25.1.0, SVG Export Plug-In . SVG Version: 6.00 Build 0)  -->
<svg version="1.1" id="Layer_1" xmlns="http://www.w3.org/2000/svg" xmlns:xlink="http://www.w3.org/1999/xlink" x="0px" y="0px"
	 viewBox="0 0 380.8617 407.2794" enable-background="new 0 0 380.8617 407.2794" xml:space="preserve">
<g>
	<circle fill="#AFB0CC" cx="215.8617" cy="242.2794" r="165"/>
	<path fill="#FFFFFF" d="M150.2197,235.4391l-16.7505,1.1127c1.499,2.8107,3.0933,5.7959,4.7449,8.877L150.2197,235.4391z"/>
	<path fill="#FFFFFF" d="M222.002,360.2444c-8.1934,5.6885-19.9316,6.543-26.2207,6.543c-1.3184,0-2.3926-0.0391-3.1543-0.0781
		c-0.0098,0-0.0195,0-0.0293,0c-15.0977,0-36.4258-15.1367-51.6699-27.8418c-11.3965-9.4971-25.625-25.9961-28.6523-35.4199
		c-1.6431-5.1123-6.8384-16.4105-11.1084-25.3961c5.7776,26.7999,15.9106,51.1517,25.2686,60.6744
		c8.7891,8.9404,35.2051,29.751,56.4551,33.3496c17.0801,2.9004,33.7402-2.3096,42.8711-7.6367
		c6.5698-3.8336,13.9551-10.1965,15.2881-24.8969C236.8262,346.3663,229.7852,354.841,222.002,360.2444z"/>
	<path fill="#FFFFFF" d="M169.1357,262.507l18.208-15.2118l-20.8826,2.0392l-17.9602,15.1184
		c0.1294,0.2356,0.2637,0.4822,0.3918,0.7153L169.1357,262.507z"/>
	<path fill="#FFFFFF" d="M193.3667,259.3216c-1.2927-2.6428-2.8723-5.8606-4.5752-9.3237l-14.104,11.7792L193.3667,259.3216z"/>
	<path fill="#FFFFFF" d="M163.2886,184.783l0.0806-0.0562c0.6738-0.4785,1.6016-0.3125,2.0898,0.376
		c0.4785,0.6787,0.3027,1.6113-0.3711,2.085l-1.051,0.7312c0.7361,3.0328,1.3464,5.4095,1.5491,5.9387
		c0.0854,0.1801,0.7031,1.4404,1.6504,3.3636l1.0547-0.1996c0.7324-0.1221,1.3379,0.2148,1.6309,0.8252
		c0.3027,0.6104,0.1465,1.3428-0.3711,1.7871l-0.791,0.6812c1.8115,3.6768,4.2383,8.5999,6.8652,13.9178l0.5762-0.0336
		c0.6348,0.0293,1.25,0.3418,1.4844,0.9473s0.0586,1.2891-0.4395,1.7041l-0.2344,0.1947c2.2607,4.5789,4.425,8.9661,6.499,13.172
		l1.5771-0.105c0.6055,0.0098,1.25,0.3369,1.4844,0.9375c0.2441,0.6006,0.0781,1.2939-0.4199,1.709l-0.9802,0.8252
		c1.8323,3.7177,3.5339,7.1698,5.1282,10.4095l1.5942-0.1556c0.625-0.0732,1.2793,0.3076,1.5332,0.9131
		c0.2539,0.6104,0.0781,1.3086-0.4297,1.7334l-1.0449,0.8722c2.2388,4.5526,4.1211,8.3899,5.5981,11.4148l1.0522-0.1385
		c0.918-0.0879,1.5723,0.4736,1.6797,1.2939s-0.4688,1.5723-1.2891,1.6846l-0.0562,0.0073c1.1804,2.4347,1.9287,4.0045,2.0483,4.314
		c0.5176,1.3623,1.4941,3.8916-18.4375,17.1777c-3.6865,2.4518-16.8896,5.9894-23.6841,3.7091l-0.0073,0.1239
		c-7.0312-0.3809-23.2324-14.3457-26.9629-21.9775l-0.8008-1.6406c-21.0254-43.1055-27.9102-52.4951-30.1562-54.2529
		c-4.5801-3.6035-11.9629-6.0986-17.3438-7.9199c-2.2266-0.752-4.1113-1.3965-5.3711-1.958
		c-3.2227-1.4258-4.5508-6.0938-5.8301-10.6055c-0.6152-2.1436-1.6406-5.7275-2.4316-6.2256
		c-1.5344-0.9186-3.0212-2.4518-4.292-3.9349c-0.0293,1.1157-0.0488,2.3096-0.0696,3.4937
		c3.1384,9.4623,15.4236,46.2225,19.137,53.2391l-0.1709,0.0897c0.9131,1.3287,1.6162,2.29,1.9385,2.6202
		c1.0425,0.9399,5.8386,6.4105,11.2708,26.2653c1.1206,2.2754,14.4189,29.2719,17.3523,38.3929
		c2.832,8.7939,16.875,24.9951,27.7148,34.0332c21.3184,17.7588,38.4863,27.1436,49.6582,27.1436c0.0098,0,0.0195,0,0.0293,0
		c4.4043,0.2295,18.623,0.415,27.7539-5.9229c9.7144-6.7383,18.2178-18.3618,20.9521-24.8816
		c-0.9729-18.6926-15.6274-47.37-17.5244-49.9475c-1.0352-1.4014-3.0371-5.376-6.2109-11.748
		c-3.1934-6.4111-7.1777-14.3848-8.8574-16.4795c-2.0508-2.5684-8.877-12.627-16.1133-23.2812
		c-4.2285-6.2402-8.4668-12.4854-11.6113-17.0215c-5.8008-8.3594-10.6348-23.2178-13.8379-33.0518
		c-1.3672-4.1943-2.6562-8.1592-3.2715-9.165c-1.0547-1.7383-2.7832-2.9736-3.9258-3.4912
		C160.3003,171.6324,161.8823,178.8071,163.2886,184.783z"/>
	<path fill="#FFFFFF" d="M161.1865,249.8495l-19.5715,1.9116c1.8323,3.4003,3.6609,6.7798,5.4163,10.0024L161.1865,249.8495z"/>
	<path fill="#FFFFFF" d="M65.907,172.1756l0.011-0.0073c0.918,1.416,3.7988,5.3857,6.0938,6.7676
		c2.1484,1.2842,3.1152,4.6533,4.2188,8.5547c0.8398,2.9395,2.1094,7.3828,3.6133,8.0518c1.1816,0.5225,2.9492,1.1182,5.0293,1.8213
		c5.6641,1.9141,13.418,4.5361,18.5449,8.5645c4.5117,3.5498,14.7461,21.7529,31.2695,55.6445l0.8008,1.6357
		c2.0801,4.256,8.9185,10.8942,14.9561,15.2832c0.0879-0.2344,0.1379-0.4871,0.3467-0.6592l0.3979-0.3326
		c-1.4355-2.5128-3.1311-5.5536-5.0012-8.9502l-3.4631,0.4547c-0.0684,0.0049-0.127,0.0098-0.1953,0.0098
		c-0.5859,0-1.1328-0.3467-1.377-0.8936c-0.2637-0.6104-0.0977-1.3232,0.4102-1.7529l2.3462-1.9757
		c-2.0654-3.7866-4.292-7.9041-6.6077-12.2095l-3.3069,0.3229c-0.6934,0.0537-1.2793-0.3076-1.5332-0.918
		c-0.2539-0.6055-0.0781-1.3086,0.4297-1.7285l2.1863-1.8195c-1.969-3.6743-3.9734-7.428-5.9827-11.1969l-3.5083,0.2332
		c-0.6152,0.0293-1.2402-0.3418-1.4844-0.9326c-0.2441-0.5957-0.0781-1.2842,0.4102-1.7041l2.2656-1.9501
		c-1.2305-2.3157-2.4573-4.6228-3.6621-6.8927l-1.0059-1.8896c-0.5713-1.0773-1.2061-2.1613-1.8286-3.2434l-3.7085,0.2161
		c-0.6836,0.0098-1.2891-0.376-1.5039-1.0107c-0.2246-0.6348,0.0098-1.3379,0.5566-1.7188l2.2217-1.5454
		c-1.3013-2.0825-2.6233-4.1156-3.9502-6.0504l-2.9102,0.5499c-0.8887,0.1465-1.6016-0.3906-1.7578-1.1963
		c-0.1562-0.8154,0.3809-1.5967,1.1914-1.7529l1.5857-0.2997c-4.5032-6.3263-8.4558-11.1066-9.2322-11.7169
		c-0.3906-0.1221-3.0176-0.4199-5.127-0.6592c-7.9395-0.9033-14.209-1.8018-16.6895-4.4043
		c-2.7539-2.8906-2.959-7.9834-3.1836-13.3789c-0.0977-2.4756-0.1953-5.0293-0.5566-7.3047
		c-0.5566-3.4668-3.8379-9.7559-7.5879-15.6934c-1.3965,3.3643-2.8613,9.9365-3.418,13.4375
		C66.1133,168.5593,66.0071,170.1773,65.907,172.1756z"/>
	<path fill="#FFFFFF" d="M164.8352,266.0995l-14.3884,1.8903c1.4087,2.5537,2.7051,4.8761,3.8574,6.9073L164.8352,266.0995z"/>
	<path fill="#FFFFFF" d="M116.3525,206.8338l20.929-3.9539l22.4963-15.6537c-1.6101-6.6547-3.5193-15.2539-3.8696-18.7671
		c-4.0625-3.5699-11.2622-1.6833-20.9668,5.6964l-0.4297,0.3271c-1.3867,1.04-5.1465,2.417-11.6602,4.7559
		c-5.5078,1.9775-11.748,4.2188-13.9844,5.625c-2.6672,1.6736-3.0273,6.3092-2.9382,8.6017
		C107.8589,195.3854,111.9604,200.5075,116.3525,206.8338z"/>
	<path fill="#FFFFFF" d="M180.3223,279.7806c8.0957-5.3906,15.2637-10.9766,16.6797-12.9541
		c-0.3723-0.7965-1.2183-2.5439-2.2473-4.6576l-24.3689,3.2013l-14.5679,12.1674c1.4343,2.4713,2.5269,4.2548,3.0493,4.9042
		C161.0352,285.1077,175.7422,282.8226,180.3223,279.7806z"/>
	<path fill="#FFFFFF" d="M145.9875,215.9592l17.3718-14.9481l-24.8938,4.7021l-15.7458,10.9564
		c0.1257,0.2087,0.2441,0.4138,0.3687,0.6232L145.9875,215.9592z"/>
	<path fill="#FFFFFF" d="M150.9143,215.6723l20.3772-1.1871c-2.3169-4.6893-4.2065-8.5175-5.6641-11.4746L150.9143,215.6723z"/>
	<path fill="#FFFFFF" d="M65.5457,188.0838c0.0061,5.7904,0.177,11.283,0.6653,14.0894
		c0.7202,4.1296,7.3315,15.6946,12.8552,24.5837C74.8071,215.5307,68.9014,198.1229,65.5457,188.0838z"/>
	<path fill="#FFFFFF" d="M126.6504,223.721c0.8777,1.6547,1.98,3.7335,3.2349,6.0944l12.3535-10.6311l-17.511,1.0199
		c0.2991,0.5414,0.6335,1.0913,0.9167,1.6272L126.6504,223.721z"/>
	<path fill="#FFFFFF" d="M165.2368,246.4395l15.415-12.9749c-0.0073-0.0153-0.0146-0.0305-0.022-0.0458l-25.3174,1.6821
		l-15.6519,13.0231c0.1367,0.2563,0.2759,0.5139,0.4138,0.7709L165.2368,246.4395z"/>
	<path fill="#FFFFFF" d="M182.019,236.2381l-11.5063,9.6869l15.5298-1.5161C184.7327,241.7465,183.3936,239.0262,182.019,236.2381z"
		/>
	<path fill="#FFFFFF" d="M121.1353,214.1147l10.1172-7.0392l-13.0688,2.4689C119.1846,211.0428,120.1648,212.5601,121.1353,214.1147
		z"/>
	<path fill="#FFFFFF" d="M62.9199,138.8821c4.4727,4.472,12.0642,15.6738,15.9229,24.0485
		c3.1641-0.4181,11.2231-1.6772,19.6143-4.5856l0.7812,2.2656c-8.1104,2.8131-15.791,4.1119-19.4275,4.6179
		c0.2039,0.5151,0.4138,1.0297,0.5774,1.5082c5.8899-0.8276,23.4326-3.8965,34.2993-12.381l1.4844,1.8945
		c-11.2756,8.7994-28.7524,11.9336-35.1428,12.8302c0.0293,0.1471,0.1111,0.3448,0.1331,0.4852
		c0.0513,0.3223,0.0366,0.6732,0.0793,1.001c4.4458-0.6274,15.1038-2.4744,24.7351-6.792l0.9766,2.1875
		c-10.1453,4.5508-21.0596,6.3947-25.5212,7.0062c0.1123,1.4642,0.2844,2.9114,0.3455,4.3658
		c0.1758,4.4141,0.3613,8.9844,2.0703,10.7764c1.6797,1.7627,9.8535,2.6904,14.248,3.1934c1.6846,0.191,2.8638,0.3394,3.8501,0.4865
		c0.1611-3.0719,1.0254-7.9474,4.7925-10.3156c2.6074-1.6357,8.7891-3.8574,14.7656-6.001c4.2871-1.543,9.6289-3.457,10.6055-4.1943
		l0.4102-0.3076c7.1338-5.4224,12.5977-7.6703,16.8286-8.1757c-1.1328-5.0427-5.8984-11.4191-8.9282-15.3693
		c-1.0254-1.3525-1.8652-2.4463-2.3145-3.1641l-0.5566-0.8643c-2.7051-4.1943-9.8828-15.3369-9.8828-24.9609
		c0-8.6035-13.6426-84.787-16.4111-100.1263C54.6387,24.2062,13.5303,43.3542,4.729,47.7383
		C20.6641,73.5764,58.6816,134.653,62.9199,138.8821z"/>
	<path fill="#FFFFFF" d="M163.1567,197.9916c-0.7227-1.4728-1.1597-2.3712-1.2329-2.5372c-0.1465-0.3265-0.686-2.3438-1.3782-5.1056
		l-16.0498,11.1682L163.1567,197.9916z"/>
	<path fill="#FFFFFF" d="M173.8525,219.6744l-14.6082,12.1545l19.9487-1.3251C177.3474,226.7612,175.5579,223.132,173.8525,219.6744
		z"/>
	<path fill="#FFFFFF" d="M131.3281,232.5284c0.2002,0.3784,0.3845,0.7263,0.592,1.1151l22.2327-1.4764l17.6733-14.7058
		l-24.6594,1.4362L131.3281,232.5284z"/>
	<path fill="#FFFFFF" d="M244.9219,154.6066l9.6094-11.322l-16.6992,4.0796C240.0977,149.6506,242.4585,152.0584,244.9219,154.6066z
		"/>
	<path fill="#FFFFFF" d="M276.1816,134.9142c-1.1719-1.9623-2.3926-4.0289-3.6621-6.1835
		c-0.2295-0.3894-0.4651-0.7886-0.6958-1.1816l-9.0259,10.6342L276.1816,134.9142z"/>
	<path fill="#FFFFFF" d="M266.2061,165.5777l-8.3667,2.5928c1.1157,1.1871,2.2119,2.3547,3.3057,3.5248L266.2061,165.5777z"/>
	<polygon fill="#FFFFFF" points="264.5166,150.5991 274.7754,138.3401 259.4971,142.0718 247.4512,156.265 	"/>
	<path fill="#FFFFFF" d="M260.8521,154.9783l-11.8042,3.9185c1.5063,1.5747,3.0225,3.1671,4.5374,4.7662L260.8521,154.9783z"/>
	<path fill="#FFFFFF" d="M276.3965,172.9391l-10.957,3.3661c1.3818,1.488,2.7246,2.9388,4.0161,4.3427L276.3965,172.9391z"/>
	<path fill="#FFFFFF" d="M179.668,82.7939c-1.8103,0.8691-4.0552,2.3724-5.0391,5.0433c-1.5039,4.0552-4.5703,12.851-6.7847,20.7288
		l0.1343-0.0061c0.293,6.4795,1.875,13.8086,3.7695,14.3896c3.9648,1.2207,7.6855,1.543,7.7246,1.5479
		c0.5078,0.0439,0.957,0.3418,1.2012,0.7959c0.0781,0.1514,8.0566,15.0586,18.0664,16.084
		c6.8848,0.7275,12.5195-0.6396,16.25-1.5381c2.3145-0.5566,3.8574-0.9229,5-0.6885c0.9668,0.1953,1.8262,1.0791,9.1992,9.458
		c10.4895,11.9305,31.6748,35.9912,47.627,46.5942l0.2148-0.3247c-2.1667-2.4561-4.7681-5.3436-7.6953-8.5413l-1.6895,0.4309
		c-0.127,0.0293-0.2441,0.0439-0.3711,0.0439c-0.5176,0-1.0059-0.2686-1.2793-0.7227c-0.3418-0.5664-0.2734-1.2891,0.166-1.7822
		l0.6506-0.7233c-1.7786-1.9299-3.6462-3.9417-5.5579-5.993l-1.8994,0.5835c-0.6445,0.1953-1.3281-0.0488-1.6895-0.6006
		s-0.332-1.2793,0.0977-1.792l0.8447-1.0223c-1.6406-1.7511-3.3008-3.5144-4.9756-5.285l-1.7773,0.5505
		c-0.6348,0.2002-1.3281-0.0488-1.6895-0.6006c-0.3711-0.5518-0.332-1.2842,0.0977-1.792l0.7593-0.9076
		c-2.0715-2.1796-4.126-4.3298-6.1572-6.4398l-1.5552,0.5164c-0.6348,0.2051-1.3379-0.0293-1.709-0.5859
		c-0.3809-0.5566-0.3418-1.2988,0.0977-1.8115l0.6348-0.7477c-3.1921-3.2996-6.2305-6.4044-9.0039-9.1925l-1.4941,0.365
		c-0.8203,0.1807-1.6113-0.2979-1.8066-1.0986c-0.1733-0.7178,0.2454-1.3763,0.9009-1.6632
		c-5.4932-5.4572-9.5691-9.2596-10.7642-9.8309c-1.6309-0.3906-4.1504,0.0928-7.3438,0.6885
		c-2.666,0.498-5.6934,1.0693-9.3652,1.3477c-9.8145,0.8691-15.8887-10.083-16.6016-14.5361l-0.0977-0.5859
		c-4.6582-29.1113-6.0449-33.4033-6.3574-34.0234C180.2319,88.912,179.9219,88.425,179.668,82.7939z"/>
	<path fill="#FFFFFF" d="M235.3699,144.8831l22.4622-5.4871l12.3779-14.5819c-4.2944-7.2632-8.6792-14.4983-11.0107-17.099
		c-0.8008-0.791-2.1484-1.2305-3.9355-1.2305c-0.0391,0-0.0781,0-0.1074,0c-9.209,0.0879-26.377,11.499-30,15.2686
		c-2.5879,2.6807-2.6855,8.5303-2.4512,11.4502C225.1135,134.9277,229.7156,139.2465,235.3699,144.8831z"/>
	<path fill="#FFFFFF" d="M290.7129,200.0003c0.0586,0.0049,0.127,0.0049,0.1855,0.0049c8.9648,0,20.4883-10.4883,23.1543-13.3057
		c-0.2637-1.2549-2.4707-4.7266-5.0586-7.168c-0.4419-0.4175-1.3135-1.4313-2.3682-2.702l-16.8787,4.3036l-8.385,12.644
		c1.0669,1.2067,1.9897,2.265,2.5635,2.9517C285.7324,198.887,287.9492,199.9564,290.7129,200.0003z"/>
	<path fill="#FFFFFF" d="M285.415,182.2372l-11.7517,2.9962c2.1204,2.323,4.0308,4.4312,5.6372,6.2244L285.415,182.2372z"/>
	<path fill="#FFFFFF" d="M183.8965,87.1878c0.6543,1.1816,2.0898,5.8105,6.8164,35.3271l0.0879,0.5859
		c0.459,2.8857,4.8828,11.6748,12.3438,11.1865c3.457-0.2686,6.3672-0.8154,8.9355-1.2939c2.4902-0.4688,4.6289-0.874,6.5723-0.8789
		c-0.1172-3.4473,0.2246-9.6094,3.6133-13.1348c0.6726-0.6982,2.146-1.9092,4.0015-3.3014
		c-2.0386-0.0592-4.0967-0.105-5.9741-0.3119l0.2539-2.3828c2.8076,0.307,5.9277,0.3442,9.0796,0.3113
		c0.6604-0.4492,1.2988-0.882,2.0142-1.3428c-1.6382,0.0867-3.2935,0.1672-5.0195,0.1672c-6.543,0-13.5547-0.7227-19.6387-2.9443
		l0.8203-2.2559c8.9453,3.2684,19.9744,3.0957,28.3887,2.2711c1.1987-0.6842,2.4268-1.3495,3.6755-1.9812
		c-3.6145,0.4755-8.3801,0.9259-13.5876,0.9259c-0.6152,0-1.2305-0.0098-1.8555-0.0195l0.0586-2.4023
		c0.5859,0.0146,1.1719,0.0195,1.7578,0.0195c9.6704,0,18.0078-1.6083,19.4531-1.9012c0.7397-13.941,10.9106-83.775,13.0908-98.6591
		c-7.2461-1.9714-34.6655-8.2184-75.1514-3.3679C183.2544,34.4778,183.0225,82.6065,183.8965,87.1878z"/>
	<path fill="#FFFFFF" d="M298.999,167.1817l-6.7798,10.2222l12.3193-3.1409C302.926,172.2488,301.0376,169.8294,298.999,167.1817z"
		/>
	<path fill="#FFFFFF" d="M284.668,147.9617l-9.7375,11.7731l14.9475-4.632C287.9761,152.5357,286.217,150.1273,284.668,147.9617z"/>
	<path fill="#FFFFFF" d="M285.8789,166.8863l10.4346-3.2068c-1.1475-1.507-2.2925-3.028-3.4424-4.5605L285.8789,166.8863z"/>
	<path fill="#FFFFFF" d="M278.4351,138.6447l-8.4985,10.155l12.4207-4.1235c-0.5042-0.7306-1.0925-1.5625-1.4783-2.1466
		C280.1575,141.4346,279.3188,140.0858,278.4351,138.6447z"/>
	<path fill="#FFFFFF" d="M274.7559,244.8489c25.0586,20.293,43.3496,22.6025,59.7754,22.2754
		c7.1582-0.1904,15.5469-4.8926,22.4219-12.583c5.1074-5.7129,7.5684-11.1377,7.3633-13.54
		c-0.1196-1.4081-0.9204-3.9722-2.0264-6.9952c-3.2166,5.8917-10.0781,16.3226-21.1865,22.4982
		c-7.2754,4.0381-13.6035,5.459-19.375,5.459c-6.9434,0-13.0957-2.0508-19.1309-4.0674
		c-11.5625-3.8525-36.1816-23.9648-46.4941-35.1221c-10.5078-11.3672-30.293-33.0762-30.293-33.0762
		c-6.4551-7.3828-31.1914-26.4551-45.9766-37.8467l-5.6445-4.3604c-7.2815-5.6543-10.2258-13.3673-11.46-19.1974
		c-1.1426,4.3347-1.9482,9.3518-0.9229,12.7081c0.3125,1.0352,0.5859,2.1582,0.8789,3.3545
		c1.8457,7.5732,4.3652,17.9395,24.9902,28.9014c8.7402,4.6484,15.4199,7.876,20.7812,10.4688
		c10.0195,4.8438,14.5898,7.0557,16.8457,11.0547C228.2715,200.098,249.2773,224.2142,274.7559,244.8489z"/>
	<path fill="#FFFFFF" d="M297.1875,158.2071c6.5503,8.6853,13.1177,17.0654,14.5508,18.4143
		c0.0879,0.083,8.9062,8.7109,5.5859,12.4365c-0.1367,0.1465-14.1113,14.9463-26.4258,14.9463c-0.0879,0-0.166,0-0.2441,0
		c-1.416-0.0244-2.6489-0.4724-3.894-0.8856c-0.2856-0.058-0.5713-0.1215-0.863-0.1965c-0.2576-0.1068-0.5505-0.1349-0.7996-0.2588
		c-16.7285-5.0098-43.2507-35.1221-58.1543-52.0721c-3.4766-3.9502-6.7676-7.6953-7.7441-8.5156h-0.0098
		c-0.6641,0-2.0996,0.3467-3.5059,0.6836c-3.9258,0.9375-9.8633,2.373-17.2559,1.6064
		c-10.3516-1.0645-18.1934-13.7598-20.0195-16.9629c-1.3867-0.166-4.3555-0.6055-7.5391-1.582
		c-2.7417-0.8429-4.1931-5.0983-4.9829-9.2792c-0.2783,1.4093-0.4883,2.7039-0.5737,3.7665
		c-0.0195,0.2148-0.0684,0.4248-0.1465,0.6201c-0.0891,0.2112-0.2039,0.52-0.3052,0.7764
		c0.1855,4.0338,1.5332,15.9369,11.1646,23.4131l5.6445,4.3555c14.8633,11.46,39.7461,30.6445,46.3867,38.2275
		c0,0,19.7559,21.6797,30.2539,33.0322c10.1465,10.9814,34.4531,30.7227,45.2441,34.3213
		c10.9277,3.6475,21.2402,7.0947,36.084-1.1768c12.041-6.6888,18.9832-19.0985,21.2085-23.6084
		c-4.8999-12.0392-14.0234-29.8285-20.9351-38.1006C332.0166,182.7322,310.99,167.3807,297.1875,158.2071z"/>
	<polygon fill="#FFFFFF" points="271.6992,182.637 287.8894,178.5086 295.4688,167.0804 281.9702,171.2271 	"/>
	<polygon fill="#FFFFFF" points="280.304,168.5995 289.5312,158.3499 271.4404,163.956 263.2715,173.8333 	"/>
	<polygon fill="#FFFFFF" points="255.8301,165.6546 269.6985,161.3565 280.3223,148.5159 266.2695,153.1802 	"/>
	<path d="M137.5488,143.3987l0.5566,0.8643c0.4492,0.7178,1.2891,1.8115,2.3145,3.1641c3.0298,3.9502,7.7954,10.3265,8.9282,15.3693
		c-4.231,0.5054-9.6948,2.7533-16.8286,8.1757l-0.4102,0.3076c-0.9766,0.7373-6.3184,2.6514-10.6055,4.1943
		c-5.9766,2.1436-12.1582,4.3652-14.7656,6.001c-3.7671,2.3682-4.6313,7.2437-4.7925,10.3156
		c-0.9863-0.1471-2.1655-0.2954-3.8501-0.4865c-4.3945-0.5029-12.5684-1.4307-14.248-3.1934
		c-1.709-1.792-1.8945-6.3623-2.0703-10.7764c-0.061-1.4545-0.2332-2.9016-0.3455-4.3658
		c4.4617-0.6116,15.376-2.4554,25.5212-7.0062l-0.9766-2.1875c-9.6313,4.3176-20.2893,6.1646-24.7351,6.792
		c-0.0427-0.3278-0.0281-0.6787-0.0793-1.001c-0.022-0.1404-0.1038-0.3381-0.1331-0.4852
		c6.3904-0.8966,23.8672-4.0308,35.1428-12.8302l-1.4844-1.8945c-10.8667,8.4845-28.4094,11.5533-34.2993,12.381
		c-0.1636-0.4785-0.3735-0.993-0.5774-1.5082c3.6365-0.506,11.3171-1.8048,19.4275-4.6179l-0.7812-2.2656
		c-8.3911,2.9083-16.4502,4.1675-19.6143,4.5856c-3.8586-8.3746-11.4502-19.5764-15.9229-24.0485
		C58.6816,134.653,20.6641,73.5764,4.729,47.7383c-0.4382-0.7111-0.9265-1.5015-1.3306-2.157L0,47.681
		c2.2168,3.6084,54.5215,88.4668,60.0879,94.0332c1.8652,1.8652,4.4434,5.1807,7.0312,8.9746
		c-2.7832,4.0283-4.834,16.5039-4.8535,16.6309c-0.5176,3.2959-1.3184,27.9541,0,35.5371
		c1.3379,7.6367,19.1699,35.8057,21.5234,37.9492c0.2734,0.2441,6.6992,6.3965,13.3789,37.6855
		c5.8984,27.6367,16.5137,52.9736,26.416,63.0371c9.4434,9.6143,36.2109,30.6934,58.6426,34.4922
		c3.5742,0.6055,7.1289,0.874,10.6152,0.874c14.1797,0,27.1484-4.458,34.9316-8.999c7.5391-4.3994,17.5586-12.6123,17.5586-33.0762
		c0-19.8438-16.2695-51.333-18.3984-54.2383c-0.8887-1.1963-3.4082-6.2646-5.8594-11.1621
		c-3.6133-7.2607-7.3633-14.7656-9.3066-17.1924c-1.9531-2.4414-9.0527-12.9053-15.9277-23.0273
		c-4.2383-6.25-8.4863-12.5098-11.6406-17.0508c-5.459-7.8809-10.1855-22.4023-13.3203-32.0166
		c-1.8359-5.6494-2.832-8.6621-3.6523-10.0049c-1.9043-3.1299-6.1914-6.2109-9.0332-5.6152
		c-0.1501,0.0311-0.2356,0.1556-0.376,0.2051c-1.1646-0.8557-2.5977-1.5118-4.325-1.8402
		c-0.9973-6.1597-6.4954-13.4552-9.8889-17.8864c-0.9375-1.2256-1.709-2.2119-2.1191-2.8613l-0.5664-0.8984
		c-2.5293-3.9209-9.248-14.3457-9.248-22.793c0-9.8779-16.2988-99.8975-16.9922-103.7256l-3.9453,0.7129
		c0.0171,0.0897,0.2271,1.25,0.5225,2.8864c2.7686,15.3394,16.4111,91.5228,16.4111,100.1263
		C127.666,128.0618,134.8438,139.2044,137.5488,143.3987z M163.8086,172.2073c0.6152,1.0059,1.9043,4.9707,3.2715,9.165
		c3.2031,9.834,8.0371,24.6924,13.8379,33.0518c3.1445,4.5361,7.3828,10.7812,11.6113,17.0215
		c7.2363,10.6543,14.0625,20.7129,16.1133,23.2812c1.6797,2.0947,5.6641,10.0684,8.8574,16.4795
		c3.1738,6.3721,5.1758,10.3467,6.2109,11.748c1.897,2.5775,16.5515,31.2549,17.5244,49.9475
		c-2.7344,6.5198-11.2378,18.1433-20.9521,24.8816c-9.1309,6.3379-23.3496,6.1523-27.7539,5.9229c-0.0098,0-0.0195,0-0.0293,0
		c-11.1719,0-28.3398-9.3848-49.6582-27.1436c-10.8398-9.0381-24.8828-25.2393-27.7148-34.0332
		c-2.9333-9.1211-16.2317-36.1176-17.3523-38.3929c-5.4321-19.8547-10.2283-25.3253-11.2708-26.2653
		c-0.3223-0.3302-1.0254-1.2915-1.9385-2.6202l0.1709-0.0897c-3.7134-7.0166-15.9985-43.7769-19.137-53.2391
		c0.0208-1.1841,0.0403-2.3779,0.0696-3.4937c1.2708,1.4832,2.7576,3.0164,4.292,3.9349c0.791,0.498,1.8164,4.082,2.4316,6.2256
		c1.2793,4.5117,2.6074,9.1797,5.8301,10.6055c1.2598,0.5615,3.1445,1.2061,5.3711,1.958
		c5.3809,1.8213,12.7637,4.3164,17.3438,7.9199c2.2461,1.7578,9.1309,11.1475,30.1562,54.2529l0.8008,1.6406
		c3.7305,7.6318,19.9316,21.5967,26.9629,21.9775l0.0073-0.1239c6.7944,2.2803,19.9976-1.2573,23.6841-3.7091
		c19.9316-13.2861,18.9551-15.8154,18.4375-17.1777c-0.1196-0.3094-0.8679-1.8793-2.0483-4.314l0.0562-0.0073
		c0.8203-0.1123,1.3965-0.8643,1.2891-1.6846s-0.7617-1.3818-1.6797-1.2939l-1.0522,0.1385
		c-1.4771-3.0249-3.3594-6.8622-5.5981-11.4148l1.0449-0.8722c0.5078-0.4248,0.6836-1.123,0.4297-1.7334
		c-0.2539-0.6055-0.9082-0.9863-1.5332-0.9131l-1.5942,0.1556c-1.5942-3.2397-3.2959-6.6919-5.1282-10.4095l0.9802-0.8252
		c0.498-0.415,0.6641-1.1084,0.4199-1.709c-0.2344-0.6006-0.8789-0.9277-1.4844-0.9375l-1.5771,0.105
		c-2.074-4.2059-4.2383-8.5931-6.499-13.172l0.2344-0.1947c0.498-0.415,0.6738-1.0986,0.4395-1.7041s-0.8496-0.918-1.4844-0.9473
		l-0.5762,0.0336c-2.627-5.318-5.0537-10.2411-6.8652-13.9178l0.791-0.6812c0.5176-0.4443,0.6738-1.1768,0.3711-1.7871
		c-0.293-0.6104-0.8984-0.9473-1.6309-0.8252l-1.0547,0.1996c-0.9473-1.9232-1.5649-3.1836-1.6504-3.3636
		c-0.2026-0.5292-0.813-2.9059-1.5491-5.9387l1.051-0.7312c0.6738-0.4736,0.8496-1.4062,0.3711-2.085
		c-0.4883-0.6885-1.416-0.8545-2.0898-0.376l-0.0806,0.0562c-1.4062-5.976-2.9883-13.1506-3.4058-16.0669
		C161.0254,169.2337,162.7539,170.4691,163.8086,172.2073z M225.7617,364.4388c-9.1309,5.3271-25.791,10.5371-42.8711,7.6367
		c-21.25-3.5986-47.666-24.4092-56.4551-33.3496c-9.3579-9.5227-19.491-33.8745-25.2686-60.6744
		c4.27,8.9856,9.4653,20.2838,11.1084,25.3961c3.0273,9.4238,17.2559,25.9229,28.6523,35.4199
		c15.2441,12.7051,36.5723,27.8418,51.6699,27.8418c0.0098,0,0.0195,0,0.0293,0c0.7617,0.0391,1.8359,0.0781,3.1543,0.0781
		c6.2891,0,18.0273-0.8545,26.2207-6.543c7.7832-5.4034,14.8242-13.8782,19.0479-20.7025
		C239.7168,354.2422,232.3315,360.6052,225.7617,364.4388z M65.5457,188.0838c3.3557,10.0391,9.2615,27.4469,13.5205,38.6731
		c-5.5237-8.8892-12.135-20.4541-12.8552-24.5837C65.7227,199.3668,65.5518,193.8742,65.5457,188.0838z M138.4656,205.7132
		l24.8938-4.7021l-17.3718,14.9481l-22.8992,1.3336c-0.1245-0.2094-0.2429-0.4144-0.3687-0.6232L138.4656,205.7132z
		 M121.1353,214.1147c-0.9705-1.5546-1.9507-3.0719-2.9517-4.5703l13.0688-2.4689L121.1353,214.1147z M161.9238,195.4544
		c0.0732,0.166,0.5103,1.0645,1.2329,2.5372l-18.6609,3.5254l16.0498-11.1682
		C161.2378,193.1107,161.7773,195.1279,161.9238,195.4544z M173.8525,219.6744c1.7053,3.4576,3.4949,7.0868,5.3406,10.8295
		l-19.9487,1.3251L173.8525,219.6744z M154.1528,232.1671l-22.2327,1.4764c-0.2075-0.3888-0.3918-0.7367-0.592-1.1151
		l15.8386-13.631l24.6594-1.4362L154.1528,232.1671z M150.9143,215.6723l14.7131-12.6617
		c1.4575,2.9572,3.3472,6.7853,5.6641,11.4746L150.9143,215.6723z M142.2388,219.1843l-12.3535,10.6311
		c-1.2549-2.3608-2.3572-4.4397-3.2349-6.0944l-1.0059-1.8896c-0.2832-0.5359-0.6177-1.0858-0.9167-1.6272L142.2388,219.1843z
		 M150.2197,235.4391l-12.0056,9.9896c-1.6516-3.0811-3.2458-6.0663-4.7449-8.877L150.2197,235.4391z M155.3125,235.101
		l25.3174-1.6821c0.0073,0.0153,0.0146,0.0305,0.022,0.0458l-15.415,12.9749l-25.1624,2.4554
		c-0.1379-0.257-0.2771-0.5145-0.4138-0.7709L155.3125,235.101z M182.019,236.2381c1.3745,2.7881,2.7136,5.5084,4.0234,8.1708
		l-15.5298,1.5161L182.019,236.2381z M161.1865,249.8495l-14.1553,11.9141c-1.7554-3.2227-3.584-6.6022-5.4163-10.0024
		L161.1865,249.8495z M166.4612,249.3344l20.8826-2.0392l-18.208,15.2118l-20.2429,2.6611
		c-0.1282-0.2332-0.2625-0.4797-0.3918-0.7153L166.4612,249.3344z M188.7915,249.9979c1.7029,3.4631,3.2825,6.6809,4.5752,9.3237
		l-18.6792,2.4554L188.7915,249.9979z M164.8352,266.0995l-10.531,8.7976c-1.1523-2.0312-2.4487-4.3536-3.8574-6.9073
		L164.8352,266.0995z M170.3857,265.3702l24.3689-3.2013c1.0291,2.1136,1.875,3.8611,2.2473,4.6576
		c-1.416,1.9775-8.584,7.5635-16.6797,12.9541c-4.5801,3.042-19.2871,5.3271-21.4551,2.6611
		c-0.5225-0.6494-1.615-2.4329-3.0493-4.9042L170.3857,265.3702z M108.8672,184.8636c2.2363-1.4062,8.4766-3.6475,13.9844-5.625
		c6.5137-2.3389,10.2734-3.7158,11.6602-4.7559l0.4297-0.3271c9.7046-7.3798,16.9043-9.2664,20.9668-5.6964
		c0.3503,3.5132,2.2595,12.1124,3.8696,18.7671l-22.4963,15.6537l-20.929,3.9539c-4.3921-6.3263-8.4937-11.4484-10.4236-13.3685
		C105.8398,191.1728,106.2,186.5372,108.8672,184.8636z M77.2168,170.1907c0.3613,2.2754,0.459,4.8291,0.5566,7.3047
		c0.2246,5.3955,0.4297,10.4883,3.1836,13.3789c2.4805,2.6025,8.75,3.501,16.6895,4.4043c2.1094,0.2393,4.7363,0.5371,5.127,0.6592
		c0.7764,0.6104,4.729,5.3906,9.2322,11.7169l-1.5857,0.2997c-0.8105,0.1562-1.3477,0.9375-1.1914,1.7529
		c0.1562,0.8057,0.8691,1.3428,1.7578,1.1963l2.9102-0.5499c1.3269,1.9348,2.6489,3.9679,3.9502,6.0504l-2.2217,1.5454
		c-0.5469,0.3809-0.7812,1.084-0.5566,1.7188c0.2148,0.6348,0.8203,1.0205,1.5039,1.0107l3.7085-0.2161
		c0.6226,1.0822,1.2573,2.1661,1.8286,3.2434l1.0059,1.8896c1.2048,2.2699,2.4316,4.577,3.6621,6.8927l-2.2656,1.9501
		c-0.4883,0.4199-0.6543,1.1084-0.4102,1.7041c0.2441,0.5908,0.8691,0.9619,1.4844,0.9326l3.5083-0.2332
		c2.0093,3.7689,4.0137,7.5226,5.9827,11.1969l-2.1863,1.8195c-0.5078,0.4199-0.6836,1.123-0.4297,1.7285
		c0.2539,0.6104,0.8398,0.9717,1.5332,0.918l3.3069-0.3229c2.3157,4.3054,4.5422,8.4229,6.6077,12.2095l-2.3462,1.9757
		c-0.5078,0.4297-0.6738,1.1426-0.4102,1.7529c0.2441,0.5469,0.791,0.8936,1.377,0.8936c0.0684,0,0.127-0.0049,0.1953-0.0098
		l3.4631-0.4547c1.8701,3.3966,3.5657,6.4374,5.0012,8.9502l-0.3979,0.3326c-0.2087,0.1721-0.2588,0.4248-0.3467,0.6592
		c-6.0376-4.389-12.876-11.0272-14.9561-15.2832l-0.8008-1.6357c-16.5234-33.8916-26.7578-52.0947-31.2695-55.6445
		c-5.127-4.0283-12.8809-6.6504-18.5449-8.5645c-2.0801-0.7031-3.8477-1.2988-5.0293-1.8213
		c-1.5039-0.6689-2.7734-5.1123-3.6133-8.0518c-1.1035-3.9014-2.0703-7.2705-4.2188-8.5547
		c-2.2949-1.3818-5.1758-5.3516-6.0938-6.7676l-0.011,0.0073c0.1001-1.9983,0.2063-3.6163,0.304-4.2407
		c0.5566-3.501,2.0215-10.0732,3.418-13.4375C73.3789,160.4349,76.6602,166.7239,77.2168,170.1907z"/>
	<path d="M290.4663,149.1721c-2.5732-3.526-4.8108-6.6742-6.2476-8.8495c-2.1191-3.1982-5.0977-8.2617-8.252-13.6182
		c-5.293-8.9941-10.7715-18.2959-13.8672-21.7432c-1.6797-1.6748-4.1602-2.5586-6.9824-2.4756
		c-1.687,0.0159-3.5266,0.3638-5.4224,0.8594c0.7092-11.3257,8.1152-64.0448,13.3521-99.6143l-3.9648-0.5859
		c-0.0684,0.4608-0.1831,1.2482-0.2979,2.0276c-2.1802,14.884-12.3511,84.718-13.0908,98.6591
		c-1.4453,0.293-9.7827,1.9012-19.4531,1.9012c-0.5859,0-1.1719-0.0049-1.7578-0.0195l-0.0586,2.4023
		c0.625,0.0098,1.2402,0.0195,1.8555,0.0195c5.2075,0,9.9731-0.4504,13.5876-0.9259c-1.2488,0.6317-2.4768,1.297-3.6755,1.9812
		c-8.4143,0.8246-19.4434,0.9973-28.3887-2.2711l-0.8203,2.2559c6.084,2.2217,13.0957,2.9443,19.6387,2.9443
		c1.7261,0,3.3813-0.0806,5.0195-0.1672c-0.7153,0.4608-1.3538,0.8936-2.0142,1.3428c-3.1519,0.033-6.272-0.0043-9.0796-0.3113
		l-0.2539,2.3828c1.8774,0.2069,3.9355,0.2527,5.9741,0.3119c-1.8555,1.3922-3.3289,2.6031-4.0015,3.3014
		c-3.3887,3.5254-3.7305,9.6875-3.6133,13.1348c-1.9434,0.0049-4.082,0.4102-6.5723,0.8789
		c-2.5684,0.4785-5.4785,1.0254-8.9355,1.2939c-7.4609,0.4883-11.8848-8.3008-12.3438-11.1865l-0.0879-0.5859
		c-4.7266-29.5166-6.1621-34.1455-6.8164-35.3271c-0.874-4.5813-0.6421-52.71-0.2637-85.3833
		c0.0073-0.5469,0.0122-1.1249,0.0195-1.6626l-4.0039-0.0488c-0.5444,45.5823-0.4248,67.5781-0.1294,78.3783
		c-2.4878,0.9253-6.8604,3.1635-8.6401,7.9742c-0.0879,0.2344-8.5938,23.2227-9.5215,33.2275
		c-0.8789,2.1533-5.752,14.7461-3.3789,22.5c0.293,0.9619,0.5469,2.0117,0.8203,3.1299c1.9043,7.8369,4.7949,19.6826,27.002,31.4893
		c8.8086,4.6777,15.5176,7.9248,20.918,10.5322c8.9648,4.3359,13.457,6.5088,15.0879,9.4141
		c3.1738,5.6738,24.1602,29.9414,50.4297,51.2158c24.3848,19.751,42.8613,23.2129,59.0527,23.2129
		c1.123,0,2.2363-0.0195,3.3398-0.0488c11.8848-0.3076,21.6602-9.8291,25.3027-13.9111c5.4297-6.0693,8.7109-12.5635,8.3691-16.5479
		c-0.7227-8.374-15.4785-39.2773-25.3223-51.0596C332.8198,177.4606,301.7041,155.8481,290.4663,149.1721z M208.457,183.7259
		c-5.3613-2.5928-12.041-5.8203-20.7812-10.4688c-20.625-10.9619-23.1445-21.3281-24.9902-28.9014
		c-0.293-1.1963-0.5664-2.3193-0.8789-3.3545c-1.0254-3.3563-0.2197-8.3734,0.9229-12.7081
		c1.2341,5.8301,4.1785,13.5431,11.46,19.1974l5.6445,4.3604c14.7852,11.3916,39.5215,30.4639,45.9766,37.8467
		c0,0,19.7852,21.709,30.293,33.0762c10.3125,11.1572,34.9316,31.2695,46.4941,35.1221c6.0352,2.0166,12.1875,4.0674,19.1309,4.0674
		c5.7715,0,12.0996-1.4209,19.375-5.459c11.1084-6.1755,17.97-16.6064,21.1865-22.4982c1.106,3.0231,1.9067,5.5872,2.0264,6.9952
		c0.2051,2.4023-2.2559,7.8271-7.3633,13.54c-6.875,7.6904-15.2637,12.3926-22.4219,12.583
		c-16.4258,0.3271-34.7168-1.9824-59.7754-22.2754c-25.4785-20.6348-46.4844-44.751-49.4531-50.0684
		C223.0469,190.7816,218.4766,188.5696,208.457,183.7259z M339.6387,253.8773c-14.8438,8.2715-25.1562,4.8242-36.084,1.1768
		c-10.791-3.5986-35.0977-23.3398-45.2441-34.3213c-10.498-11.3525-30.2539-33.0322-30.2539-33.0322
		c-6.6406-7.583-31.5234-26.7676-46.3867-38.2275l-5.6445-4.3555c-9.6313-7.4762-10.979-19.3793-11.1646-23.4131
		c0.1013-0.2563,0.2161-0.5652,0.3052-0.7764c0.0781-0.1953,0.127-0.4053,0.1465-0.6201c0.0854-1.0626,0.2954-2.3572,0.5737-3.7665
		c0.7898,4.1809,2.2412,8.4363,4.9829,9.2792c3.1836,0.9766,6.1523,1.416,7.5391,1.582c1.8262,3.2031,9.668,15.8984,20.0195,16.9629
		c7.3926,0.7666,13.3301-0.6689,17.2559-1.6064c1.4062-0.3369,2.8418-0.6836,3.5059-0.6836h0.0098
		c0.9766,0.8203,4.2676,4.5654,7.7441,8.5156c14.9036,16.9501,41.4258,47.0624,58.1543,52.0721
		c0.249,0.1239,0.542,0.152,0.7996,0.2588c0.2917,0.0751,0.5774,0.1385,0.863,0.1965c1.2451,0.4132,2.478,0.8612,3.894,0.8856
		c0.0781,0,0.1562,0,0.2441,0c12.3145,0,26.2891-14.7998,26.4258-14.9463c3.3203-3.7256-5.498-12.3535-5.5859-12.4365
		c-1.4331-1.3489-8.0005-9.729-14.5508-18.4143c13.8025,9.1736,34.8291,24.5251,42.7246,33.9612
		c6.9116,8.2721,16.0352,26.0614,20.9351,38.1006C358.6218,234.7787,351.6797,247.1884,339.6387,253.8773z M298.999,167.1817
		c2.0386,2.6477,3.927,5.0671,5.5396,7.0813l-12.3193,3.1409L298.999,167.1817z M287.8894,178.5086l-16.1902,4.1284l10.271-11.4099
		l13.4985-4.1467L287.8894,178.5086z M285.8789,166.8863l6.9922-7.7673c1.1499,1.5326,2.2949,3.0536,3.4424,4.5605
		L285.8789,166.8863z M284.668,147.9617c1.5491,2.1655,3.3081,4.574,5.21,7.1411l-14.9475,4.632L284.668,147.9617z
		 M269.6985,161.3565l-13.8684,4.2981l10.4395-12.4744l14.0527-4.6643L269.6985,161.3565z M289.5312,158.3499l-9.2273,10.2496
		l-17.0325,5.2338l8.1689-9.8773L289.5312,158.3499z M269.9365,148.7997l8.4985-10.155c0.8838,1.441,1.7224,2.7899,2.4438,3.8849
		c0.3857,0.5841,0.9741,1.416,1.4783,2.1466L269.9365,148.7997z M272.5195,128.7308c1.2695,2.1545,2.4902,4.2212,3.6621,6.1835
		l-13.3838,3.269l9.0259-10.6342C272.0544,127.9422,272.29,128.3414,272.5195,128.7308z M274.7754,138.3401l-10.2588,12.2589
		l-17.0654,5.6659l12.0459-14.1931L274.7754,138.3401z M244.9219,154.6066c-2.4634-2.5482-4.8242-4.9561-7.0898-7.2424
		l16.6992-4.0796L244.9219,154.6066z M260.8521,154.9783l-7.2668,8.6847c-1.5149-1.5991-3.031-3.1915-4.5374-4.7662
		L260.8521,154.9783z M266.2061,165.5777l-5.061,6.1176c-1.0938-1.17-2.1899-2.3376-3.3057-3.5248L266.2061,165.5777z
		 M276.3965,172.9391l-6.9409,7.7087c-1.2915-1.4038-2.6343-2.8546-4.0161-4.3427L276.3965,172.9391z M285.415,182.2372
		l-6.1145,9.2206c-1.6064-1.7932-3.5168-3.9014-5.6372-6.2244L285.415,182.2372z M289.7473,181.1331l16.8787-4.3036
		c1.0547,1.2708,1.9263,2.2845,2.3682,2.702c2.5879,2.4414,4.7949,5.9131,5.0586,7.168
		c-2.666,2.8174-14.1895,13.3057-23.1543,13.3057c-0.0586,0-0.127,0-0.1855-0.0049c-2.7637-0.0439-4.9805-1.1133-6.7871-3.2715
		c-0.5737-0.6866-1.4966-1.745-2.5635-2.9517L289.7473,181.1331z M225.1562,121.7532c3.623-3.7695,20.791-15.1807,30-15.2686
		c0.0293,0,0.0684,0,0.1074,0c1.7871,0,3.1348,0.4395,3.9355,1.2305c2.3315,2.6007,6.7163,9.8358,11.0107,17.099l-12.3779,14.5819
		l-22.4622,5.4871c-5.6543-5.6366-10.2563-9.9554-12.6648-11.6797C222.4707,130.2835,222.5684,124.4339,225.1562,121.7532z
		 M186.7578,123.1497l0.0977,0.5859c0.7129,4.4531,6.7871,15.4053,16.6016,14.5361c3.6719-0.2783,6.6992-0.8496,9.3652-1.3477
		c3.1934-0.5957,5.7129-1.0791,7.3438-0.6885c1.1951,0.5713,5.271,4.3738,10.7642,9.8309
		c-0.6555,0.2869-1.0742,0.9454-0.9009,1.6632c0.1953,0.8008,0.9863,1.2793,1.8066,1.0986l1.4941-0.365
		c2.7734,2.7881,5.8118,5.8929,9.0039,9.1925l-0.6348,0.7477c-0.4395,0.5127-0.4785,1.2549-0.0977,1.8115
		c0.3711,0.5566,1.0742,0.791,1.709,0.5859l1.5552-0.5164c2.0312,2.11,4.0857,4.2603,6.1572,6.4398l-0.7593,0.9076
		c-0.4297,0.5078-0.4688,1.2402-0.0977,1.792c0.3613,0.5518,1.0547,0.8008,1.6895,0.6006l1.7773-0.5505
		c1.6748,1.7706,3.335,3.5339,4.9756,5.285l-0.8447,1.0223c-0.4297,0.5127-0.459,1.2402-0.0977,1.792s1.0449,0.7959,1.6895,0.6006
		l1.8994-0.5835c1.9116,2.0514,3.7793,4.0631,5.5579,5.993l-0.6506,0.7233c-0.4395,0.4932-0.5078,1.2158-0.166,1.7822
		c0.2734,0.4541,0.7617,0.7227,1.2793,0.7227c0.127,0,0.2441-0.0146,0.3711-0.0439l1.6895-0.4309
		c2.9272,3.1976,5.5286,6.0852,7.6953,8.5413l-0.2148,0.3247c-15.9521-10.603-37.1375-34.6637-47.627-46.5942
		c-7.373-8.3789-8.2324-9.2627-9.1992-9.458c-1.1426-0.2344-2.6855,0.1318-5,0.6885c-3.7305,0.8984-9.3652,2.2656-16.25,1.5381
		c-10.0098-1.0254-17.9883-15.9326-18.0664-16.084c-0.2441-0.4541-0.6934-0.752-1.2012-0.7959
		c-0.0391-0.0049-3.7598-0.3271-7.7246-1.5479c-1.8945-0.5811-3.4766-7.9102-3.7695-14.3896l-0.1343,0.0061
		c2.2144-7.8778,5.2808-16.6736,6.7847-20.7288c0.9839-2.6709,3.2288-4.1742,5.0391-5.0433
		c0.2539,5.6311,0.564,6.1182,0.7324,6.3324C180.7129,89.7464,182.0996,94.0384,186.7578,123.1497z"/>
</g>
</svg>
